Coordinates
version=1
nRows=16
nColumns=33
inDegrees=yes

Units are S.I. units (second, meters, Newtons, ...)
Angles are in degrees.

endheader
time	ground_thorax_rot_x	ground_thorax_rot_y	ground_thorax_rot_z	ground_thorax_tx	ground_thorax_ty	ground_thorax_tz	clav_prot_r	clav_elev_r	scapula_abduction_r	scapula_elevation_r	scapula_upward_rot_r	scapula_winging_r	shoulder_elv_r	plane_of_elev_r	axial_rot_r	elbow_flexion_r	pro_sup_r	wrist_flex_r	wrist_dev_r	clav_prot_l	clav_elev_l	scapula_abduction_l	scapula_elevation_l	scapula_upward_rot_l	scapula_winging_l	shoulder_elv_l	plane_of_elev_l	axial_rot_l	elbow_flexion_l	pro_sup_l	wrist_flex_l	wrist_dev_l	
6.4700	38.664630	11.730473	14.532635	-116.948737	783.391275	7.085823	17.497053	39.030675	41.373371	45.000000	-39.314381	-2960.299466	-4070.337554	143.128691	180.000000	1449.946461	47.387241	21.824385	12.638585	5.940834	-45.000000	-39.034136	45.000000	-42.160231	806.897266	-2974.613822	133.973440	-180.000000	729.147415	-325.241179	8.670400	-20.988019	
6.4800	38.693246	11.719930	14.418437	-119.079442	784.607363	6.892027	17.416375	38.974765	41.334393	45.000000	-39.454022	-2960.448717	-4070.129215	143.085905	180.000000	1450.078030	47.387312	21.867957	12.570255	5.991655	-45.000000	-39.031499	45.000000	-42.167933	807.154625	-2974.450925	133.969143	-180.000000	729.246780	-325.449722	8.635326	-21.019931	
6.4900	38.719313	11.722768	14.318367	-121.243996	785.854847	6.700260	17.343167	38.912533	41.287493	45.000000	-39.623078	-2960.599424	-4069.909357	143.034403	180.000000	1450.210796	47.387939	21.908166	12.495782	6.054453	-45.000000	-39.017541	45.000000	-42.221910	807.413824	-2974.271482	133.955839	-180.000000	729.345908	-325.698561	8.604507	-21.046604	
6.5000	38.741268	11.746567	14.248930	-123.437341	787.129416	6.510840	17.277532	38.825570	41.243828	45.000000	-39.833933	-2960.759418	-4069.686693	142.977216	180.000000	1450.341486	47.387516	21.947491	12.417243	6.135429	-45.000000	-38.982747	45.000000	-42.339270	807.678458	-2974.077446	133.930917	-180.000000	729.438335	-326.002364	8.580038	-21.066326	
6.5100	38.758470	11.793508	14.208448	-125.653941	788.426380	6.324290	17.225451	38.723967	41.194072	45.000000	-40.091561	-2960.922403	-4069.450497	142.908757	180.000000	1450.471071	47.384991	21.983220	12.334849	6.236962	-45.000000	-38.928501	45.000000	-42.529936	807.944506	-2973.860798	133.891532	-180.000000	729.527356	-326.370489	8.564056	-21.078346	
6.5200	38.776240	11.834919	14.163359	-127.888193	789.741025	6.141387	17.171076	38.621160	41.151049	45.000000	-40.344385	-2961.087721	-4069.221441	142.846498	180.000000	1450.594043	47.379940	22.015702	12.248219	6.334105	-45.000000	-38.880500	45.000000	-42.698677	808.212816	-2973.654042	133.857503	-180.000000	729.602290	-326.799594	8.558481	-21.084542	
6.5300	38.796715	11.854529	14.087527	-130.134494	791.068772	5.963172	17.108590	38.542204	41.106911	45.000000	-40.556586	-2961.245806	-4069.000801	142.795840	180.000000	1450.710084	47.372461	22.044489	12.159176	6.411298	-45.000000	-38.855846	45.000000	-42.801149	808.476572	-2973.462963	133.838173	-180.000000	729.665941	-327.274836	8.562514	-21.088077	
6.5400	38.821470	11.851807	13.987981	-132.387563	792.405525	5.790830	17.035132	38.475692	41.070203	45.000000	-40.738061	-2961.402084	-4068.793328	142.756784	180.000000	1450.820690	47.361380	22.069160	12.065180	6.468909	-45.000000	-38.852383	45.000000	-42.826587	808.742506	-2973.300352	133.836449	-180.000000	729.715070	-327.785828	8.574201	-21.089626	
6.5500	38.848368	11.841600	13.881413	-134.642516	793.747785	5.625547	16.964206	38.419773	41.026162	45.000000	-40.915631	-2961.553770	-4068.583492	142.715678	180.000000	1450.930167	47.344549	22.090290	11.970411	6.523915	-45.000000	-38.854871	45.000000	-42.839866	809.006046	-2973.142011	133.837394	-180.000000	729.761494	-328.320296	8.591437	-21.090086	
6.5600	38.877289	11.829214	13.780197	-136.894776	795.092697	5.468367	16.896396	38.361945	40.980686	45.000000	-41.106073	-2961.704788	-4068.372916	142.670856	180.000000	1451.039332	47.319470	22.107948	11.873993	6.580586	-45.000000	-38.855602	45.000000	-42.855044	809.271444	-2972.989189	133.838874	-180.000000	729.804845	-328.871591	8.612548	-21.089527	
6.5700	38.906861	11.809641	13.674305	-139.140254	796.438112	5.320055	16.829197	38.314010	40.929270	45.000000	-41.286603	-2961.850264	-4068.167949	142.629271	180.000000	1451.147779	47.285132	22.124991	11.780508	6.634728	-45.000000	-38.858142	45.000000	-42.862597	809.531889	-2972.838078	133.843275	-180.000000	729.849580	-329.425825	8.634445	-21.089636	
6.5800	38.934026	11.807718	13.601279	-141.375332	797.782556	5.181022	16.770647	38.246039	40.877698	45.000000	-41.509464	-2961.997854	-4067.961118	142.580906	180.000000	1451.253546	47.240159	22.141062	11.688904	6.707595	-45.000000	-38.837943	45.000000	-42.936110	809.792226	-2972.675393	133.835613	-180.000000	729.894783	-329.981581	8.654404	-21.088256	
6.5900	38.966446	11.779818	13.499958	-143.596795	799.125237	5.051286	16.697679	38.204662	40.827008	45.000000	-41.670368	-2962.136201	-4067.776473	142.556374	180.000000	1451.351167	47.187511	22.160514	11.604429	6.757274	-45.000000	-38.833842	45.000000	-42.947732	810.039678	-2972.533012	133.845944	-180.000000	729.935782	-330.519873	8.670720	-21.089861	
6.6000	38.999649	11.751448	13.406117	-145.801840	800.465910	4.930487	16.618856	38.150878	40.783189	45.000000	-41.839650	-2962.273723	-4067.598679	142.534829	180.000000	1451.437061	47.127287	22.180354	11.522396	6.805551	-45.000000	-38.822817	45.000000	-42.984694	810.280855	-2972.390754	133.851324	-180.000000	729.971782	-331.036145	8.682174	-21.093601	
6.6100	39.034930	11.700131	13.285448	-147.988003	801.804856	4.817946	16.527671	38.113496	40.741387	45.000000	-41.977130	-2962.402259	-4067.433272	142.524887	180.000000	1451.514906	47.062392	22.200998	11.443513	6.832413	-45.000000	-38.829758	45.000000	-42.975314	810.510395	-2972.265140	133.868895	-180.000000	730.004920	-331.520380	8.690848	-21.102683	
6.6200	39.066858	11.664434	13.190586	-150.153465	803.142882	4.712773	16.447982	38.045609	40.700870	45.000000	-42.178942	-2962.532406	-4067.253949	142.494892	180.000000	1451.586685	46.992014	22.217360	11.362448	6.879072	-45.000000	-38.819688	45.000000	-43.047261	810.739018	-2972.123533	133.865329	-180.000000	730.039581	-331.980868	8.698153	-21.113896	
